<svg width="93" height="93" viewBox="0 0 93 93" fill="none" xmlns="http://www.w3.org/2000/svg">
<path d="M46.8992 1.20254L86.4737 23.7503V68.8457L46.8992 91.3934L7.32471 68.8457V23.7503L46.8992 1.20254Z" fill="#F0F0F0"/>
<path d="M46.298 0L86.3932 23.149V69.4469L46.298 92.5959L6.20275 69.4469V23.149L46.298 0Z" fill="#DFE1E6"/>
<path d="M46.2979 3.60763L83.2688 24.9528V67.6431L46.2979 88.9883L9.32697 67.6431V24.9528L46.2979 3.60763Z" fill="#F0F0F0"/>
<path d="M46.298 8.41781L79.1032 27.3579V65.238L46.298 84.1781L13.4928 65.238V27.3579L46.298 8.41781Z" fill="white"/>
<path fill-rule="evenodd" clip-rule="evenodd" d="M46.2979 1.20254L85.3806 23.7503V68.8457L46.2979 91.3934L7.21521 68.8457V23.7503L46.2979 1.20254ZM81.458 26.0133L46.2979 5.72867L11.1379 26.0133V66.5826L46.2979 86.8673L81.458 66.5826V26.0133Z" fill="white"/>
<path d="M1.20251 56.889H92.0595L87.3191 65.5797L92.0595 73.6778H1.20251L6.33791 65.3822L1.20251 56.889Z" fill="#DFE1E6"/>
<path d="M33.7846 68.7942C33.2564 68.7942 32.7832 68.7084 32.3648 68.5369C31.9464 68.3655 31.6103 68.1117 31.3565 67.7756C31.1096 67.4395 30.9793 67.0348 30.9655 66.5616H32.838C32.8655 66.8291 32.9581 67.0348 33.1158 67.1789C33.2736 67.3161 33.4793 67.3846 33.7331 67.3846C33.9938 67.3846 34.1995 67.3263 34.3504 67.2097C34.5013 67.0863 34.5768 66.9182 34.5768 66.7056C34.5768 66.5273 34.515 66.3798 34.3916 66.2632C34.275 66.1466 34.1275 66.0506 33.9492 65.9751C33.7777 65.8997 33.5308 65.8139 33.2084 65.7179C32.742 65.5739 32.3613 65.4298 32.0664 65.2858C31.7715 65.1418 31.5177 64.9291 31.3051 64.6479C31.0924 64.3667 30.9861 63.9997 30.9861 63.5471C30.9861 62.8749 31.2296 62.3502 31.7166 61.9729C32.2036 61.5888 32.838 61.3968 33.62 61.3968C34.4156 61.3968 35.0569 61.5888 35.5439 61.9729C36.0309 62.3502 36.2915 62.8783 36.3258 63.5573H34.4225C34.4087 63.3241 34.323 63.1424 34.1652 63.0121C34.0075 62.8749 33.8051 62.8063 33.5582 62.8063C33.3456 62.8063 33.1741 62.8646 33.0438 62.9812C32.9135 63.0909 32.8483 63.2521 32.8483 63.4647C32.8483 63.698 32.9581 63.8797 33.1776 64.01C33.397 64.1404 33.74 64.281 34.2064 64.4319C34.6728 64.5896 35.05 64.7405 35.3381 64.8846C35.6331 65.0286 35.8868 65.2378 36.0995 65.5121C36.3121 65.7865 36.4184 66.1397 36.4184 66.5719C36.4184 66.9834 36.3121 67.3572 36.0995 67.6933C35.8937 68.0294 35.5919 68.2969 35.1941 68.4958C34.7963 68.6947 34.3264 68.7942 33.7846 68.7942ZM39.2604 61.4997V68.7221H37.5011V61.4997H39.2604ZM42.2947 67.3641H44.5993V68.7221H40.5354V61.4997H42.2947V67.3641ZM52.2186 61.4997L49.6567 68.7221H47.455L44.8932 61.4997H46.7657L48.5559 66.9525L50.3563 61.4997H52.2186ZM54.7132 62.9092V64.3701H57.0692V65.7282H54.7132V67.3126H57.3779V68.7221H52.9539V61.4997H57.3779V62.9092H54.7132ZM62.2033 68.7221L60.7012 65.9957H60.2794V68.7221H58.5201V61.4997H61.4728C62.0421 61.4997 62.5257 61.5991 62.9235 61.798C63.3282 61.9969 63.63 62.2713 63.8289 62.6211C64.0278 62.964 64.1273 63.3481 64.1273 63.7734C64.1273 64.2535 63.9901 64.6822 63.7157 65.0595C63.4482 65.4367 63.0504 65.7042 62.5223 65.862L64.189 68.7221H62.2033ZM60.2794 64.7508H61.37C61.6923 64.7508 61.9324 64.6719 62.0901 64.5142C62.2548 64.3564 62.3371 64.1335 62.3371 63.8454C62.3371 63.5711 62.2548 63.355 62.0901 63.1972C61.9324 63.0395 61.6923 62.9606 61.37 62.9606H60.2794V64.7508Z" fill="#091E42"/>
<path d="M21.3473 47.3606H19.4013L19.0793 48.2916H18.0503L19.8073 43.3986H20.9483L22.7053 48.2916H21.6693L21.3473 47.3606ZM21.0813 46.5766L20.3743 44.5326L19.6673 46.5766H21.0813ZM26.344 44.8756C26.232 44.6703 26.078 44.5139 25.882 44.4066C25.686 44.2993 25.4574 44.2456 25.196 44.2456C24.9067 44.2456 24.65 44.3109 24.426 44.4416C24.202 44.5723 24.027 44.7589 23.901 45.0016C23.775 45.2443 23.712 45.5243 23.712 45.8416C23.712 46.1683 23.775 46.4529 23.901 46.6956C24.0317 46.9383 24.2114 47.1249 24.44 47.2556C24.6687 47.3863 24.9347 47.4516 25.238 47.4516C25.6114 47.4516 25.917 47.3536 26.155 47.1576C26.393 46.9569 26.5494 46.6793 26.624 46.3246H24.944V45.5756H27.59V46.4296C27.5247 46.7703 27.3847 47.0853 27.17 47.3746C26.9554 47.6639 26.6777 47.8973 26.337 48.0746C26.001 48.2473 25.623 48.3336 25.203 48.3336C24.7317 48.3336 24.3047 48.2286 23.922 48.0186C23.544 47.8039 23.2454 47.5076 23.026 47.1296C22.8114 46.7516 22.704 46.3223 22.704 45.8416C22.704 45.3609 22.8114 44.9316 23.026 44.5536C23.2454 44.1709 23.544 43.8746 23.922 43.6646C24.3047 43.4499 24.7294 43.3426 25.196 43.3426C25.7467 43.3426 26.225 43.4779 26.631 43.7486C27.037 44.0146 27.317 44.3903 27.471 44.8756H26.344ZM29.0151 44.1966V45.4216H30.6601V46.1986H29.0151V47.4936H30.8701V48.2916H28.0351V43.3986H30.8701V44.1966H29.0151ZM35.6597 48.2916H34.6797L32.4607 44.9386V48.2916H31.4807V43.3986H32.4607L34.6797 46.7586V43.3986H35.6597V48.2916ZM36.1101 45.8416C36.1101 45.3609 36.2175 44.9316 36.4321 44.5536C36.6515 44.1709 36.9478 43.8746 37.3211 43.6646C37.6991 43.4499 38.1215 43.3426 38.5881 43.3426C39.1341 43.3426 39.6125 43.4826 40.0231 43.7626C40.4338 44.0426 40.7208 44.4299 40.8841 44.9246H39.7571C39.6451 44.6913 39.4865 44.5163 39.2811 44.3996C39.0805 44.2829 38.8471 44.2246 38.5811 44.2246C38.2965 44.2246 38.0421 44.2923 37.8181 44.4276C37.5988 44.5583 37.4261 44.7449 37.3001 44.9876C37.1788 45.2303 37.1181 45.5149 37.1181 45.8416C37.1181 46.1636 37.1788 46.4483 37.3001 46.6956C37.4261 46.9383 37.5988 47.1273 37.8181 47.2626C38.0421 47.3933 38.2965 47.4586 38.5811 47.4586C38.8471 47.4586 39.0805 47.4003 39.2811 47.2836C39.4865 47.1623 39.6451 46.9849 39.7571 46.7516H40.8841C40.7208 47.2509 40.4338 47.6406 40.0231 47.9206C39.6171 48.1959 39.1388 48.3336 38.5881 48.3336C38.1215 48.3336 37.6991 48.2286 37.3211 48.0186C36.9478 47.8039 36.6515 47.5076 36.4321 47.1296C36.2175 46.7516 36.1101 46.3223 36.1101 45.8416ZM45.0462 43.4056L43.3942 46.5906V48.2916H42.4142V46.5906L40.7552 43.4056H41.8612L42.9112 45.6386L43.9542 43.4056H45.0462ZM50.2823 44.9176C50.2823 45.1789 50.2193 45.4239 50.0933 45.6526C49.972 45.8813 49.7783 46.0656 49.5123 46.2056C49.251 46.3456 48.9197 46.4156 48.5183 46.4156H47.6993V48.2916H46.7193V43.4056H48.5183C48.8963 43.4056 49.2183 43.4709 49.4843 43.6016C49.7503 43.7323 49.9487 43.9119 50.0793 44.1406C50.2147 44.3693 50.2823 44.6283 50.2823 44.9176ZM48.4763 45.6246C48.747 45.6246 48.9477 45.5639 49.0783 45.4426C49.209 45.3166 49.2743 45.1416 49.2743 44.9176C49.2743 44.4416 49.0083 44.2036 48.4763 44.2036H47.6993V45.6246H48.4763ZM52.9941 47.3606H51.0481L50.7261 48.2916H49.6971L51.4541 43.3986H52.5951L54.3521 48.2916H53.3161L52.9941 47.3606ZM52.7281 46.5766L52.0211 44.5326L51.3141 46.5766H52.7281ZM57.2489 48.2916L56.1709 46.3876H55.7089V48.2916H54.7289V43.4056H56.5629C56.9409 43.4056 57.2629 43.4733 57.5289 43.6086C57.7949 43.7393 57.9932 43.9189 58.1239 44.1476C58.2592 44.3716 58.3269 44.6236 58.3269 44.9036C58.3269 45.2256 58.2335 45.5173 58.0469 45.7786C57.8602 46.0353 57.5825 46.2126 57.2139 46.3106L58.3829 48.2916H57.2489ZM55.7089 45.6526H56.5279C56.7939 45.6526 56.9922 45.5896 57.1229 45.4636C57.2535 45.3329 57.3189 45.1533 57.3189 44.9246C57.3189 44.7006 57.2535 44.5279 57.1229 44.4066C56.9922 44.2806 56.7939 44.2176 56.5279 44.2176H55.7089V45.6526ZM61.9783 43.4056V44.1966H60.6763V48.2916H59.6963V44.1966H58.3942V43.4056H61.9783ZM66.5923 48.2916H65.6123L63.3933 44.9386V48.2916H62.4133V43.3986H63.3933L65.6123 46.7586V43.3986H66.5923V48.2916ZM68.2608 44.1966V45.4216H69.9058V46.1986H68.2608V47.4936H70.1158V48.2916H67.2808V43.3986H70.1158V44.1966H68.2608ZM73.2463 48.2916L72.1683 46.3876H71.7063V48.2916H70.7263V43.4056H72.5603C72.9383 43.4056 73.2603 43.4733 73.5263 43.6086C73.7923 43.7393 73.9907 43.9189 74.1213 44.1476C74.2567 44.3716 74.3243 44.6236 74.3243 44.9036C74.3243 45.2256 74.231 45.5173 74.0443 45.7786C73.8577 46.0353 73.58 46.2126 73.2113 46.3106L74.3803 48.2916H73.2463ZM71.7063 45.6526H72.5253C72.7913 45.6526 72.9897 45.5896 73.1203 45.4636C73.251 45.3329 73.3163 45.1533 73.3163 44.9246C73.3163 44.7006 73.251 44.5279 73.1203 44.4066C72.9897 44.2806 72.7913 44.2176 72.5253 44.2176H71.7063V45.6526Z" fill="#253858"/>
<path d="M30.1246 30.4056C29.1522 30.4056 28.7031 31.1263 28.7031 31.8229C28.7031 32.5191 29.1274 33.2156 30.1246 33.2156C30.4865 33.2156 30.873 33.0668 31.1479 32.8053L31.5713 33.2156C31.1727 33.6009 30.6606 33.7879 30.1245 33.7879C28.7278 33.7879 28.1042 32.8301 28.1042 31.8229C28.1042 30.8156 28.7526 29.8213 30.1245 29.8213C30.6357 29.8213 31.1349 30.0081 31.5343 30.4056L31.1228 30.8037C30.848 30.5294 30.4865 30.4056 30.1246 30.4056ZM31.921 33.7006V29.8709H32.5439V33.1281H34.5642V33.7005H31.921V33.7006ZM36.9225 33.7879C35.5873 33.7879 34.9509 32.8173 34.9509 31.8099C34.9509 30.6417 35.774 29.8083 36.9225 29.8083C38.2437 29.8083 38.8915 30.7659 38.8915 31.8099C38.8915 32.8422 38.2545 33.7879 36.9225 33.7879ZM36.9334 30.3684C36.0489 30.3684 35.5625 30.9892 35.5625 31.8228C35.5745 32.4942 35.9738 33.2273 36.9225 33.2273C37.8818 33.2273 38.2804 32.556 38.2804 31.8228C38.2804 31.1137 37.8692 30.3806 36.9334 30.3684ZM40.8857 33.7747C40.0259 33.7499 39.3027 33.2025 39.3027 32.1207V29.8829H39.9155V32.1207C39.9155 32.8173 40.325 33.1908 40.8856 33.2156C41.4981 33.2522 41.9468 32.8549 41.9468 32.1207V29.8829H42.5574V32.1207C42.5575 33.2522 41.8085 33.8126 40.8857 33.7747ZM44.5909 33.7006C44.1299 33.7006 43.5925 33.7006 43.1317 33.7006V29.8709H44.5909C45.9012 29.8709 46.4988 30.8036 46.5102 31.7484C46.536 32.7181 45.9248 33.7006 44.5909 33.7006ZM44.5909 30.455H43.7422V33.1161H44.5909C45.5246 33.1161 45.9248 32.4321 45.9121 31.7484C45.9012 31.1017 45.5005 30.455 44.5909 30.455ZM51.0009 33.7128H50.4513L49.94 32.3572L49.5285 31.0766L49.1042 32.3703L48.6062 33.713H48.071L46.6725 29.883H47.3589L48.333 32.8301L49.3297 29.883H49.728L50.7391 32.8301L51.699 29.883H52.385L51.0009 33.7128ZM55.7139 33.7128L55.3409 32.9045H53.258L52.8961 33.7128H52.2483L53.9681 29.8829H54.6417L56.363 33.7128H55.7139ZM54.3039 30.5175L53.4958 32.3455H55.1158L54.3039 30.5175ZM58.0591 32.1339V33.7006H57.4481V32.1339L55.9648 29.8959V29.8709H56.699L57.7469 31.5615L58.843 29.8709H59.5811V29.8959L58.0591 32.1339ZM61.4264 30.3059C60.9133 30.3059 60.5408 30.5175 60.5408 30.8902C60.5408 31.2636 60.9653 31.3634 61.4742 31.4373C62.2604 31.5499 63.0225 31.7603 63.0225 32.6184C63.0225 33.4768 62.2362 33.7995 61.4264 33.7995C60.6902 33.7995 60.1291 33.576 59.7801 32.9295L60.2417 32.6183C60.515 33.0781 60.9895 33.2521 61.4373 33.2521C61.8986 33.2521 62.4116 33.1033 62.4116 32.6183C62.4116 32.208 61.9614 32.0592 61.4264 31.9843C60.666 31.8851 59.9431 31.6856 59.9431 30.8653C59.9431 30.0695 60.727 29.7714 61.4264 29.7714C61.9741 29.7714 62.5354 29.9075 62.8602 30.418L62.3749 30.729C62.1865 30.468 61.8249 30.3059 61.4264 30.3059Z" fill="#2F39BF"/>
<path d="M46.6194 35.1865C46.3859 35.0227 46.097 34.938 45.758 34.938H45.0245V37.3108H45.758C46.097 37.3108 46.3859 37.2204 46.6194 37.0509C46.7472 36.9605 46.8471 36.8306 46.9138 36.6723C46.9805 36.5142 47.0195 36.3221 47.0195 36.113C47.0195 35.9041 46.9861 35.7176 46.9138 35.5594C46.8471 35.4012 46.7472 35.2769 46.6194 35.1865ZM45.4524 35.3447H45.6857C45.9414 35.3447 46.1525 35.3956 46.3137 35.4972C46.4915 35.6046 46.5804 35.8137 46.5804 36.113C46.5804 36.4238 46.4915 36.6385 46.3137 36.7571C46.1581 36.8588 45.9524 36.9153 45.6913 36.9153H45.4579V35.3447H45.4524Z" fill="#2F39BF"/>
<path d="M47.4641 34.9154C47.3918 34.9154 47.3306 34.9437 47.2862 34.9888C47.2362 35.0396 47.214 35.0961 47.214 35.1696C47.214 35.243 47.2418 35.3052 47.2862 35.356C47.3362 35.4068 47.3973 35.4295 47.4695 35.4295C47.5419 35.4295 47.6029 35.4013 47.6529 35.356C47.7029 35.3052 47.7252 35.243 47.7252 35.1696C47.7252 35.0961 47.6974 35.0341 47.6529 34.9888C47.5973 34.938 47.5363 34.9154 47.4641 34.9154Z" fill="#2F39BF"/>
<path d="M47.6638 35.6442H47.2526V37.3165H47.6638V35.6442Z" fill="#2F39BF"/>
<path d="M49.0976 35.7854C48.9754 35.6724 48.8364 35.6046 48.6809 35.6046C48.4531 35.6046 48.2641 35.6836 48.1196 35.8419C47.9696 36 47.8973 36.1978 47.8973 36.4408C47.8973 36.678 47.9696 36.8757 48.1141 37.0396C48.2586 37.1978 48.4531 37.2769 48.6809 37.2769C48.842 37.2769 48.9754 37.2317 49.0865 37.1413V37.1808C49.0865 37.322 49.0476 37.4295 48.9754 37.5029C48.9032 37.5763 48.8031 37.6159 48.6809 37.6159C48.4919 37.6159 48.3697 37.5425 48.2252 37.3391L47.9418 37.6159L47.9474 37.6272C48.0085 37.712 48.103 37.7967 48.2252 37.8815C48.3475 37.9605 48.5031 38 48.6864 38C48.931 38 49.131 37.9209 49.2755 37.774C49.4199 37.6215 49.4977 37.4181 49.4977 37.1696V35.6442H49.0921V35.7854H49.0976ZM48.9864 36.7684C48.9142 36.8532 48.8198 36.8928 48.7031 36.8928C48.5863 36.8928 48.4919 36.8532 48.4197 36.7684C48.3475 36.6837 48.3141 36.5764 48.3141 36.4408C48.3141 36.3051 48.3475 36.1921 48.4197 36.1074C48.4919 36.0226 48.5863 35.9831 48.7031 35.9831C48.8198 35.9831 48.9142 36.0226 48.9864 36.1074C49.0587 36.1921 49.0976 36.2995 49.0976 36.4408C49.0976 36.5764 49.0587 36.6837 48.9864 36.7684Z" fill="#2F39BF"/>
<path d="M50.1978 35.6442H49.7865V37.3165H50.1978V35.6442Z" fill="#2F39BF"/>
<path d="M49.9977 34.9154C49.9255 34.9154 49.8643 34.9437 49.8199 34.9888C49.7699 35.0396 49.7477 35.0961 49.7477 35.1696C49.7477 35.243 49.7755 35.3052 49.8199 35.356C49.8699 35.4068 49.931 35.4295 50.0032 35.4295C50.0756 35.4295 50.1366 35.4013 50.1866 35.356C50.2366 35.3052 50.2589 35.243 50.2589 35.1696C50.2589 35.0961 50.2311 35.0341 50.1866 34.9888C50.1254 34.938 50.0644 34.9154 49.9977 34.9154Z" fill="#2F39BF"/>
<path d="M51.0813 35.1921H50.6756V35.644H50.4423V36.0282H50.6812V36.7231C50.6812 36.9378 50.7256 37.0961 50.809 37.1863C50.8924 37.2768 51.0424 37.322 51.2535 37.322C51.3202 37.322 51.3869 37.322 51.4536 37.3164H51.4702V36.9321L51.3257 36.9378C51.2257 36.9378 51.1591 36.9209 51.1313 36.887C51.0979 36.853 51.0813 36.7796 51.0813 36.6667V36.0282H51.4647V35.644H51.0813V35.1921Z" fill="#2F39BF"/>
<path d="M53.7153 34.9436H53.3042V37.3165H53.7153V34.9436Z" fill="#2F39BF"/>
<path d="M57.7717 36.7176C57.6995 36.8024 57.6217 36.8758 57.5661 36.9154C57.5105 36.955 57.4383 36.9719 57.3494 36.9719C57.2272 36.9719 57.1272 36.9267 57.0493 36.8363C56.9715 36.7459 56.9271 36.6272 56.9271 36.486C56.9271 36.3447 56.966 36.2261 57.0438 36.1358C57.1216 36.0453 57.2216 36.0001 57.3438 36.0001C57.4772 36.0001 57.6161 36.0848 57.7384 36.2261L58.0106 35.9606C57.8328 35.7233 57.6049 35.6159 57.3327 35.6159C57.1049 35.6159 56.9104 35.7007 56.7493 35.8645C56.5881 36.0283 56.5103 36.2374 56.5103 36.486C56.5103 36.7345 56.5937 36.9436 56.7493 37.1074C56.9104 37.2712 57.1049 37.356 57.3327 37.356C57.6327 37.356 57.8718 37.2261 58.0384 36.9832L57.7717 36.7176Z" fill="#2F39BF"/>
<path d="M59.4832 35.8758C59.422 35.7911 59.3442 35.7232 59.2442 35.6781C59.1441 35.6271 59.0331 35.6046 58.9052 35.6046C58.6718 35.6046 58.4885 35.6893 58.3441 35.8645C58.2051 36.034 58.1384 36.2431 58.1384 36.4916C58.1384 36.7458 58.2162 36.9548 58.3663 37.1131C58.5163 37.2712 58.7164 37.3503 58.9608 37.3503C59.2387 37.3503 59.4664 37.2373 59.6388 37.0113L59.6498 37.0001L59.3776 36.7345C59.3554 36.7627 59.3165 36.8023 59.2831 36.8306C59.2442 36.8701 59.2053 36.8983 59.1609 36.921C59.0997 36.9548 59.0275 36.9662 58.9497 36.9662C58.833 36.9662 58.7386 36.9322 58.6664 36.8645C58.5996 36.8023 58.5607 36.7176 58.5496 36.6103H59.6443L59.6498 36.4577C59.6498 36.3504 59.6332 36.2431 59.6054 36.147C59.5832 36.0509 59.5388 35.9606 59.4832 35.8758ZM58.5774 36.2713C58.5996 36.1921 58.633 36.1244 58.683 36.0736C58.7386 36.0171 58.8108 35.9888 58.8997 35.9888C58.9997 35.9888 59.0775 36.0171 59.1275 36.0736C59.1775 36.1244 59.2053 36.1921 59.2109 36.2713H58.5774Z" fill="#2F39BF"/>
<path d="M61.0612 35.7684C60.9333 35.6611 60.7611 35.6046 60.5444 35.6046C60.4055 35.6046 60.2777 35.6328 60.1611 35.695C60.0555 35.7515 59.9498 35.8419 59.8832 35.9606L59.8888 35.9661L60.1555 36.226C60.2666 36.0509 60.3833 35.9888 60.5444 35.9888C60.6334 35.9888 60.7 36.0114 60.7556 36.0565C60.8111 36.1018 60.8389 36.1639 60.8389 36.2374V36.3164C60.7389 36.2825 60.6334 36.2713 60.5334 36.2713C60.3277 36.2713 60.1611 36.3221 60.0332 36.4181C59.9054 36.5142 59.8442 36.6554 59.8442 36.8363C59.8442 36.9944 59.8998 37.1188 60.0054 37.2147C60.1111 37.3051 60.2443 37.3503 60.4055 37.3503C60.561 37.3503 60.7111 37.2882 60.8445 37.1752V37.3108H61.2502V36.2374C61.2502 36.034 61.189 35.8758 61.0612 35.7684ZM60.3277 36.6723C60.3722 36.6385 60.4388 36.6215 60.5222 36.6215C60.6222 36.6215 60.7278 36.6441 60.8333 36.6837V36.8475C60.7445 36.9322 60.6222 36.9775 60.4778 36.9775C60.4055 36.9775 60.3499 36.9605 60.3111 36.9266C60.2721 36.8928 60.2555 36.8532 60.2555 36.8023C60.2611 36.7515 60.2833 36.7063 60.3277 36.6723Z" fill="#2F39BF"/>
<path d="M62.7894 35.8023C62.6727 35.6724 62.5116 35.6046 62.3059 35.6046C62.1449 35.6046 62.0114 35.6498 61.9114 35.7458V35.6442H61.5057V37.3165H61.917V36.3898C61.917 36.2656 61.9448 36.1639 62.0059 36.0905C62.0615 36.0171 62.1449 35.9831 62.2503 35.9831C62.3449 35.9831 62.4171 36.0114 62.4671 36.0791C62.5172 36.1413 62.545 36.2317 62.545 36.3447V37.3108H62.9561V36.3447C62.9617 36.113 62.9005 35.9323 62.7894 35.8023Z" fill="#2F39BF"/>
<path d="M52.8538 35.7684C52.7259 35.6611 52.5537 35.6046 52.3369 35.6046C52.198 35.6046 52.0702 35.6328 51.9535 35.695C51.8479 35.7515 51.7423 35.8419 51.6757 35.9606L51.6813 35.9661L51.948 36.226C52.0592 36.0509 52.1758 35.9888 52.3369 35.9888C52.4259 35.9888 52.4925 36.0114 52.5481 36.0565C52.6037 36.1018 52.6315 36.1639 52.6315 36.2374V36.3164C52.5315 36.2825 52.4259 36.2713 52.3258 36.2713C52.1202 36.2713 51.9535 36.3221 51.8257 36.4181C51.6979 36.5142 51.6368 36.6554 51.6368 36.8363C51.6368 36.9944 51.6923 37.1188 51.7979 37.2147C51.9035 37.3051 52.0369 37.3503 52.198 37.3503C52.3536 37.3503 52.5037 37.2882 52.637 37.1752V37.3108H53.0427V36.2374C53.0427 36.034 52.9816 35.8758 52.8538 35.7684ZM52.1202 36.6723C52.1646 36.6385 52.2314 36.6215 52.3147 36.6215C52.4147 36.6215 52.5203 36.6441 52.6259 36.6837V36.8475C52.5369 36.9322 52.4147 36.9775 52.2703 36.9775C52.198 36.9775 52.1424 36.9605 52.1036 36.9266C52.0646 36.8928 52.048 36.8532 52.048 36.8023C52.0536 36.7515 52.0758 36.7063 52.1202 36.6723Z" fill="#2F39BF"/>
<path d="M55.1433 37.3505C54.482 37.3505 53.943 36.8025 53.943 36.1302C53.943 35.4578 54.482 34.9099 55.1433 34.9099C55.8045 34.9099 56.3435 35.4578 56.3435 36.1302C56.3435 36.8025 55.8101 37.3505 55.1433 37.3505ZM55.1433 35.3336C54.7154 35.3336 54.3653 35.6895 54.3653 36.1246C54.3653 36.5595 54.7154 36.9155 55.1433 36.9155C55.5711 36.9155 55.9212 36.5595 55.9212 36.1246C55.9212 35.6895 55.5767 35.3336 55.1433 35.3336Z" fill="#2F39BF"/>
<path d="M42.6112 37.3367C42.4985 37.3367 42.4086 37.3006 42.3412 37.2282V37.315H42.1237V35.9314H42.3451V36.4189C42.4175 36.3558 42.5063 36.3242 42.6112 36.3242C42.7471 36.3242 42.8584 36.3722 42.9452 36.4683C43.032 36.5644 43.0754 36.6854 43.0754 36.8314C43.0754 36.9775 43.032 37.0985 42.9452 37.1946C42.8572 37.2893 42.7458 37.3367 42.6112 37.3367ZM42.4092 37.0525C42.4544 37.1104 42.5166 37.1393 42.5956 37.1393C42.6746 37.1393 42.7368 37.1104 42.7821 37.0525C42.8274 36.9946 42.8501 36.9209 42.8501 36.8314C42.8501 36.742 42.8274 36.6682 42.7821 36.6104C42.7368 36.5525 42.6746 36.5236 42.5956 36.5236C42.5166 36.5236 42.4544 36.5525 42.4092 36.6104C42.3639 36.6682 42.3412 36.742 42.3412 36.8314C42.3412 36.9209 42.3639 36.9946 42.4092 37.0525ZM44.1683 36.3479L43.6362 37.6979H43.4031L43.5507 37.3268L43.1739 36.3479H43.4264L43.675 37.0466L43.9275 36.3479H44.1683Z" fill="#2F39BF"/>
<path fill-rule="evenodd" clip-rule="evenodd" d="M43.3998 26.1991C43.3187 26.1112 43.252 26.042 43.1887 25.9699C42.9491 25.6965 42.7548 25.3927 42.6111 25.0567C42.5881 25.0028 42.5599 24.9832 42.5015 24.9843C42.2944 24.9881 42.087 24.9864 41.8797 24.9856C41.6968 24.985 41.5999 24.8921 41.5946 24.7072C41.5908 24.5834 41.5907 24.4593 41.5947 24.3355C41.6005 24.1536 41.6962 24.0626 41.8752 24.0623C42.0247 24.062 42.1743 24.0623 42.3334 24.0623C42.296 23.648 42.3025 23.2448 42.39 22.8335C42.3443 22.8335 42.3091 22.8335 42.2738 22.8335C40.4369 22.8335 38.6001 22.8336 36.7631 22.8334C36.513 22.8334 36.3276 22.6848 36.2823 22.4497C36.2288 22.172 36.4373 21.9067 36.7178 21.8959C36.7463 21.8948 36.7748 21.8955 36.8033 21.8955C38.749 21.8955 40.6947 21.8951 42.6404 21.8972C42.7121 21.8973 42.7499 21.874 42.7854 21.8116C43.0245 21.3907 43.3383 21.0368 43.7237 20.749C43.7439 20.7339 43.7633 20.7174 43.7807 20.6823C43.7493 20.6823 43.7177 20.6823 43.6861 20.6823C42.2042 20.6823 40.7223 20.6832 39.2403 20.68C39.1498 20.6798 39.0518 20.6636 38.9703 20.6259C38.7769 20.5366 38.6809 20.3114 38.7296 20.1026C38.7777 19.8962 38.9655 19.7448 39.1777 19.7446C39.8305 19.7439 40.4834 19.7443 41.1363 19.7443C42.3306 19.7443 43.5249 19.7437 44.7193 19.746C44.7893 19.7461 44.8233 19.7287 44.8468 19.6578C44.968 19.291 45.1446 18.9523 45.3658 18.6376C45.3863 18.6084 45.4063 18.5787 45.436 18.5354C45.3872 18.5331 45.3528 18.5301 45.3183 18.5301C43.5851 18.5298 41.8519 18.5309 40.1186 18.5272C40.0211 18.527 39.9145 18.5069 39.8281 18.4633C39.6423 18.3694 39.5566 18.1446 39.6095 17.946C39.6669 17.7296 39.8427 17.593 40.0672 17.593C42.1606 17.5927 44.254 17.5926 46.3473 17.594C46.4148 17.594 46.4713 17.5782 46.5291 17.5427C47.0657 17.213 47.6465 17.0296 48.2732 16.9879C50.0959 16.8664 51.7278 18.0852 52.2407 19.8532C52.27 19.9539 52.2971 20.0558 52.3164 20.1589C52.3265 20.2132 52.3483 20.2372 52.3996 20.2555C53.5359 20.6603 54.2905 21.4503 54.6248 22.6232C55.1629 24.5108 54.1064 26.4474 52.3089 26.9869C52.027 27.0715 51.7388 27.1198 51.4452 27.1214C50.1194 27.1288 48.7937 27.1359 47.4679 27.1371C44.8461 27.1395 42.2242 27.1381 39.6023 27.1361C39.5239 27.136 39.4401 27.1249 39.3679 27.0957C39.1642 27.0131 39.0577 26.7973 39.0982 26.5748C39.1362 26.3658 39.3227 26.2069 39.5395 26.1992C39.5628 26.1984 39.5861 26.199 39.6095 26.199C40.8323 26.199 42.0551 26.199 43.278 26.199C43.311 26.1991 43.3441 26.1991 43.3998 26.1991Z" fill="#2F39BF"/>
<path fill-rule="evenodd" clip-rule="evenodd" d="M38.4974 24.9858C37.9693 24.9858 37.4412 24.9859 36.9131 24.9858C36.6995 24.9857 36.6092 24.8958 36.6083 24.6812C36.6078 24.5573 36.6063 24.4335 36.61 24.3097C36.6143 24.1642 36.7154 24.063 36.8589 24.0629C37.9538 24.062 39.0488 24.062 40.1438 24.0631C40.2875 24.0632 40.3907 24.1687 40.3953 24.3191C40.3994 24.4612 40.3995 24.6037 40.3954 24.7458C40.3912 24.8875 40.2766 24.9853 40.1204 24.9856C39.758 24.9864 39.3956 24.9859 39.0332 24.9859C38.8546 24.9858 38.676 24.9858 38.4974 24.9858Z" fill="#2F39BF"/>
</svg>
