<?xml version="1.0" encoding="UTF-8"?><svg id="Layer_2" xmlns="http://www.w3.org/2000/svg" viewBox="0 0 796.54 128.21"><g id="Layer_1-2"><path d="M21.93,86.75c2.26.21,2.02,1.19,3.42,2.04,3.24,1.97,6.87,4.52,10.11,6.09.57.28,1.24.7,1.55,1.28-.17.13-.47.14-.38.53.87,2.04.9,4.26.77,6.46-.08,1.4-.77,2.72-.39,3.94-1.15,3.76-3.65,8.31-7.27,10.25-1.44.77-3.24,1.22-4.78,1.8-.53-.55,1.83-4.03,2.16-4.81.98-2.29,2.62-9.16,2.2-11.4-.06-.32-.15-.86-.58-.74-.7,1.12-1.15,2.51-1.82,3.65-5.8,9.65-11.66,14.41-20.69,20.48-1.43.96-4.43,1.08-6.13,1.87-.57-.55,2.31-3.59,2.6-4.08,1.06-1.79,2.81-4.99,3.62-6.85,1.88-4.32,2.32-9.52,4.7-13.76-1.8-.7-3.51.27-4.89,1.32-1.17.18-.74-.48-.65-1.21.23-1.88.6-3.04,1.28-4.75.17-.41.82-1.32.12-1.58,2.43-4.99,9.14-11.11,15.07-10.55ZM15.9,107.86c.33-.13.49.23.87-.46,1.47-2.69,3.52-8.07,4-11.06.05-.33.22-1.17-.16-1.29l-3.58,4.14c-1.74,2.44-2.04,5.62-1.5,8.48.19,1.02-.08.37.37.19Z" fill="#e6a940"/><path d="M89.75,4.97c.1,3.45-.06,6.93-.02,10.38l-1.49,14.49c-2.63,12.79-5.68,21.09-12.67,31.8-.89,1.36-4.32,6.84-5.42,7.4-.16.08-1.03-.45-1.16,1.32-.09,1.2.5,4.33.79,5.47.02.09.41.29.37.56l.93,12.22c-1.93,3.33-4.75,6.26-6.89,9.34-1.71,2.48-5.61,10.06-7.97,10.88-.37.13-.74.24-1.14.16l-2.65-20.72c-.45-.55-4.9,4.65-5.54,4.84-1.5.44-4.54-1.72-6.27-1.84-1.24,1.3-2.04,2.94-2.88,4.54-.22.15-.56.22-.75.38-.31-.58-.97-1-1.55-1.28-3.23-1.57-6.86-4.13-10.11-6.09-1.4-.85-1.16-1.83-3.42-2.04.54-.57.75-1.39,1.14-1.99.18-.27.62-.3.75-.53.18-.33,1.41-3.2,1.43-3.38.18-1.55-2.47-2.65-2.96-3.41-.85-1.32,1.46-6.32,1.9-8.02-.36-.31-3.02.46-3.62.7-4.5,1.82-9.4,3.3-13.62,5.31-1.44.69-3.41.87-4.99.78-.55-1.68.57-1.78.76-2.14,3.55-6.84,8.1-13.69,12.16-20.74,1.71-.62,3.55-1.01,5.26-1.64,2.83-1.05,7.66-3.51,10.43-4.3.99-.28.24.27,1.47-.54.26-.17.73-.16,1.02-.4.33-.27,2.75-4.52,3.27-5.4,3.02-5.09,5.95-9.98,9.88-14.62,5.63-6.65,15.96-15.39,23.58-19.19,2.52-1.26,5.03-2.48,7.54-3.77,1.23-.63,1.78-.9,2.74-1.27,1.83-.7,7.69-3.2,9.14-1.75.85.85.52,3.31.56,4.53ZM73.45,40.65c0-5.99-4.86-10.85-10.85-10.85s-10.85,4.86-10.85,10.85,4.86,10.85,10.85,10.85,10.85-4.86,10.85-10.85Z" fill="#102c48"/><path d="M88.24,29.85l1.49-14.49c-.04-3.46.12-6.93.02-10.38.63.38.37,1.44.38,2.07.1,8.48-.2,14.59-1.89,22.8Z" fill="#000110"/><path d="M77.32,3.47c-2.51,1.29-5.01,2.51-7.54,3.77,1.55-1.57,4.02-2.69,6.04-3.6.53-.24.91-.67,1.5-.17Z" fill="#000110"/><path d="M70.16,69.04c-.99,2.09.2,4.54-.38,6.78-.29-1.14-.88-4.27-.79-5.47.13-1.77,1-1.23,1.16-1.32Z" fill="#000110"/><circle cx="62.6" cy="40.65" r="10.85" fill="#e6a940"/><rect x="112.17" y="32.11" width="684.37" height="63.99" fill="none"/><path d="M197.21,33.79l-18,58.28h-12.24l-10.96-36.12c-.21-.56-.41-1.18-.6-1.86-.19-.68-.37-1.39-.56-2.14-.19.75-.37,1.46-.56,2.14-.19.68-.39,1.3-.6,1.86l-11.12,36.12h-12.24l-18-58.28h11.36c1.17,0,2.15.27,2.94.8.79.53,1.3,1.24,1.54,2.12l8,30.4c.24.96.48,2.01.72,3.14.24,1.13.48,2.31.72,3.54.48-2.51,1.07-4.73,1.76-6.68l9.44-30.4c.24-.75.75-1.42,1.54-2.02.79-.6,1.74-.9,2.86-.9h4c1.17,0,2.12.27,2.84.82.72.55,1.27,1.25,1.64,2.1l9.36,30.4c.69,1.87,1.28,3.99,1.76,6.36.21-1.2.43-2.33.66-3.38.23-1.05.46-2.05.7-2.98l8-30.4c.21-.77.72-1.45,1.52-2.04.8-.59,1.76-.88,2.88-.88h10.64Z" fill="#102c48"/><path d="M223.57,33.79c4.11,0,7.63.49,10.58,1.46,2.95.97,5.37,2.31,7.28,4.02,1.91,1.71,3.31,3.72,4.22,6.04.91,2.32,1.36,4.83,1.36,7.52,0,2.91-.47,5.57-1.4,8-.93,2.43-2.36,4.51-4.28,6.24-1.92,1.73-4.35,3.09-7.3,4.06-2.95.97-6.43,1.46-10.46,1.46h-7.04v19.48h-13.52v-58.28h20.56ZM223.57,62.39c3.52,0,6.05-.84,7.6-2.52,1.55-1.68,2.32-4.03,2.32-7.04,0-1.33-.2-2.55-.6-3.64-.4-1.09-1.01-2.03-1.82-2.82-.81-.79-1.84-1.39-3.08-1.82-1.24-.43-2.71-.64-4.42-.64h-7.04v18.48h7.04Z" fill="#102c48"/><path d="M291.57,33.79c4.03,0,7.45.37,10.28,1.12,2.83.75,5.13,1.8,6.92,3.16,1.79,1.36,3.09,3.01,3.9,4.96.81,1.95,1.22,4.12,1.22,6.52,0,1.31-.19,2.57-.56,3.78-.37,1.21-.96,2.35-1.76,3.4-.8,1.05-1.83,2.02-3.08,2.9-1.25.88-2.76,1.64-4.52,2.28,3.84.93,6.68,2.44,8.52,4.52s2.76,4.77,2.76,8.08c0,2.48-.48,4.79-1.44,6.92-.96,2.13-2.37,3.99-4.22,5.58-1.85,1.59-4.14,2.83-6.86,3.72-2.72.89-5.83,1.34-9.32,1.34h-23.28v-58.28h21.44ZM283.65,43.91v14.4h7.04c1.49,0,2.84-.11,4.04-.32,1.2-.21,2.22-.59,3.06-1.12.84-.53,1.48-1.27,1.92-2.2.44-.93.66-2.11.66-3.52s-.17-2.54-.52-3.46c-.35-.92-.88-1.66-1.6-2.22-.72-.56-1.63-.96-2.74-1.2-1.11-.24-2.42-.36-3.94-.36h-7.92ZM293.17,81.87c1.79,0,3.25-.23,4.38-.68,1.13-.45,2.02-1.04,2.66-1.76.64-.72,1.08-1.53,1.32-2.44.24-.91.36-1.83.36-2.76,0-1.07-.14-2.03-.42-2.88-.28-.85-.76-1.57-1.44-2.16-.68-.59-1.58-1.04-2.7-1.36-1.12-.32-2.53-.48-4.24-.48h-9.44v14.52h9.52Z" fill="#102c48"/><path d="M380.89,62.91c0,4.21-.73,8.13-2.18,11.76-1.45,3.63-3.5,6.78-6.14,9.46-2.64,2.68-5.82,4.78-9.54,6.3-3.72,1.52-7.85,2.28-12.38,2.28s-8.67-.76-12.4-2.28c-3.73-1.52-6.93-3.62-9.58-6.3-2.65-2.68-4.71-5.83-6.16-9.46-1.45-3.63-2.18-7.55-2.18-11.76s.73-8.13,2.18-11.76c1.45-3.63,3.51-6.77,6.16-9.44,2.65-2.67,5.85-4.76,9.58-6.28,3.73-1.52,7.87-2.28,12.4-2.28s8.66.77,12.38,2.3c3.72,1.53,6.9,3.63,9.54,6.3,2.64,2.67,4.69,5.81,6.14,9.44,1.45,3.63,2.18,7.53,2.18,11.72ZM367.05,62.91c0-2.88-.37-5.47-1.12-7.78-.75-2.31-1.82-4.26-3.22-5.86-1.4-1.6-3.11-2.83-5.14-3.68-2.03-.85-4.33-1.28-6.92-1.28s-4.94.43-6.98,1.28c-2.04.85-3.76,2.08-5.16,3.68-1.4,1.6-2.47,3.55-3.22,5.86-.75,2.31-1.12,4.9-1.12,7.78s.37,5.51,1.12,7.82c.75,2.31,1.82,4.26,3.22,5.86s3.12,2.82,5.16,3.66c2.04.84,4.37,1.26,6.98,1.26s4.89-.42,6.92-1.26c2.03-.84,3.74-2.06,5.14-3.66,1.4-1.6,2.47-3.55,3.22-5.86.75-2.31,1.12-4.91,1.12-7.82Z" fill="#102c48"/><path d="M446.05,62.91c0,4.21-.73,8.13-2.18,11.76-1.45,3.63-3.5,6.78-6.14,9.46-2.64,2.68-5.82,4.78-9.54,6.3-3.72,1.52-7.85,2.28-12.38,2.28s-8.67-.76-12.4-2.28c-3.73-1.52-6.93-3.62-9.58-6.3-2.65-2.68-4.71-5.83-6.16-9.46-1.45-3.63-2.18-7.55-2.18-11.76s.73-8.13,2.18-11.76c1.45-3.63,3.51-6.77,6.16-9.44,2.65-2.67,5.85-4.76,9.58-6.28,3.73-1.52,7.87-2.28,12.4-2.28s8.66.77,12.38,2.3c3.72,1.53,6.9,3.63,9.54,6.3,2.64,2.67,4.69,5.81,6.14,9.44,1.45,3.63,2.18,7.53,2.18,11.72ZM432.21,62.91c0-2.88-.37-5.47-1.12-7.78-.75-2.31-1.82-4.26-3.22-5.86-1.4-1.6-3.11-2.83-5.14-3.68-2.03-.85-4.33-1.28-6.92-1.28s-4.94.43-6.98,1.28c-2.04.85-3.76,2.08-5.16,3.68-1.4,1.6-2.47,3.55-3.22,5.86-.75,2.31-1.12,4.9-1.12,7.78s.37,5.51,1.12,7.82c.75,2.31,1.82,4.26,3.22,5.86s3.12,2.82,5.16,3.66c2.04.84,4.37,1.26,6.98,1.26s4.89-.42,6.92-1.26c2.03-.84,3.74-2.06,5.14-3.66,1.4-1.6,2.47-3.55,3.22-5.86.75-2.31,1.12-4.91,1.12-7.82Z" fill="#102c48"/><path d="M486.21,45.63c-.4.64-.82,1.12-1.26,1.44-.44.32-1.01.48-1.7.48-.61,0-1.27-.19-1.98-.58-.71-.39-1.51-.82-2.4-1.3s-1.91-.91-3.06-1.3c-1.15-.39-2.45-.58-3.92-.58-2.53,0-4.42.54-5.66,1.62-1.24,1.08-1.86,2.54-1.86,4.38,0,1.17.37,2.15,1.12,2.92.75.77,1.73,1.44,2.94,2,1.21.56,2.6,1.07,4.16,1.54,1.56.47,3.15.99,4.78,1.56,1.63.57,3.22,1.25,4.78,2.02,1.56.77,2.95,1.76,4.16,2.96,1.21,1.2,2.19,2.66,2.94,4.38.75,1.72,1.12,3.79,1.12,6.22,0,2.69-.47,5.21-1.4,7.56-.93,2.35-2.29,4.39-4.06,6.14-1.77,1.75-3.96,3.12-6.56,4.12-2.6,1-5.55,1.5-8.86,1.5-1.81,0-3.66-.19-5.54-.56s-3.7-.9-5.46-1.58-3.41-1.49-4.96-2.42c-1.55-.93-2.89-1.97-4.04-3.12l4-6.32c.32-.45.74-.83,1.26-1.14.52-.31,1.09-.46,1.7-.46.8,0,1.61.25,2.42.76.81.51,1.73,1.07,2.76,1.68,1.03.61,2.21,1.17,3.54,1.68,1.33.51,2.91.76,4.72.76,2.45,0,4.36-.54,5.72-1.62,1.36-1.08,2.04-2.79,2.04-5.14,0-1.36-.37-2.47-1.12-3.32-.75-.85-1.73-1.56-2.94-2.12-1.21-.56-2.59-1.05-4.14-1.48-1.55-.43-3.13-.9-4.76-1.42-1.63-.52-3.21-1.16-4.76-1.92-1.55-.76-2.93-1.76-4.14-3-1.21-1.24-2.19-2.79-2.94-4.64-.75-1.85-1.12-4.14-1.12-6.86,0-2.19.44-4.32,1.32-6.4s2.17-3.93,3.88-5.56c1.71-1.63,3.8-2.93,6.28-3.9,2.48-.97,5.32-1.46,8.52-1.46,1.79,0,3.53.14,5.22.42s3.3.69,4.82,1.24c1.52.55,2.94,1.2,4.26,1.96,1.32.76,2.5,1.62,3.54,2.58l-3.36,6.28Z" fill="#102c48"/><path d="M540.21,44.51h-16.4v47.56h-13.52v-47.56h-16.4v-10.72h46.32v10.72Z" fill="#102c48"/><path d="M560.65,44.19v13.6h18.32v10h-18.32v13.88h23.92v10.4h-37.52v-58.28h37.52v10.4h-23.92Z" fill="#102c48"/><path d="M640.57,92.07h-12.24c-2.27,0-3.89-.85-4.88-2.56l-9.68-16.92c-.45-.72-.96-1.25-1.52-1.58-.56-.33-1.36-.5-2.4-.5h-3.44v21.56h-13.52v-58.28h18.96c4.21,0,7.81.43,10.78,1.3,2.97.87,5.4,2.07,7.28,3.62,1.88,1.55,3.25,3.37,4.1,5.48.85,2.11,1.28,4.4,1.28,6.88,0,1.89-.25,3.68-.76,5.36-.51,1.68-1.25,3.23-2.24,4.66-.99,1.43-2.21,2.7-3.66,3.82-1.45,1.12-3.13,2.04-5.02,2.76.88.45,1.71,1.02,2.48,1.7.77.68,1.47,1.49,2.08,2.42l12.4,20.28ZM611.85,61.19c1.84,0,3.41-.23,4.7-.7,1.29-.47,2.35-1.11,3.18-1.94.83-.83,1.43-1.79,1.8-2.9.37-1.11.56-2.3.56-3.58,0-2.56-.83-4.56-2.5-6-1.67-1.44-4.25-2.16-7.74-2.16h-5.44v17.28h5.44Z" fill="#102c48"/><path d="M641.42,88.14c0-.6.11-1.16.34-1.68.23-.52.53-.97.93-1.35.39-.38.85-.69,1.39-.91.53-.23,1.12-.34,1.75-.34s1.19.11,1.73.34c.53.22,1,.53,1.4.91.4.38.71.83.94,1.35.23.52.34,1.08.34,1.68s-.11,1.16-.34,1.69c-.22.52-.54.98-.94,1.36-.4.38-.87.68-1.4.9-.53.22-1.11.33-1.73.33s-1.22-.11-1.75-.33-1-.52-1.39-.9c-.39-.38-.7-.84-.93-1.36-.22-.53-.34-1.09-.34-1.69Z" fill="#e2b857"/><path d="M673.47,72.29c-.23.28-.46.51-.67.67-.22.17-.53.25-.92.25s-.73-.09-1.04-.27c-.31-.18-.65-.39-1.04-.61-.38-.23-.83-.43-1.35-.61-.52-.18-1.16-.27-1.93-.27-.95,0-1.77.17-2.46.52-.69.35-1.26.85-1.71,1.5s-.78,1.45-1,2.39c-.22.94-.33,2-.33,3.19,0,2.48.48,4.39,1.44,5.73.96,1.33,2.28,2,3.96,2,.9,0,1.61-.11,2.14-.34.52-.22.97-.47,1.34-.75.37-.27.7-.53,1.01-.76s.7-.35,1.16-.35c.62,0,1.08.23,1.4.67l2.25,2.78c-.8.92-1.64,1.66-2.52,2.24-.88.58-1.79,1.02-2.71,1.35-.92.32-1.85.55-2.79.67-.93.12-1.84.19-2.73.19-1.58,0-3.1-.3-4.54-.9-1.44-.6-2.71-1.47-3.8-2.61-1.09-1.14-1.96-2.55-2.6-4.21-.64-1.67-.96-3.57-.96-5.7,0-1.87.28-3.61.84-5.24s1.38-3.03,2.48-4.22c1.09-1.19,2.44-2.13,4.05-2.81s3.47-1.03,5.59-1.03,3.82.33,5.35.98c1.53.65,2.92,1.6,4.15,2.85l-2.05,2.73Z" fill="#e2b857"/><path d="M686.5,54.64v37.42h-7.75v-37.42h7.75Z" fill="#e2b857"/><path d="M703.7,65.74c1.97,0,3.76.31,5.38.93,1.62.62,3,1.5,4.16,2.65s2.06,2.55,2.7,4.19.96,3.49.96,5.54-.32,3.93-.96,5.59c-.64,1.66-1.54,3.07-2.7,4.23-1.16,1.16-2.55,2.05-4.16,2.67-1.62.62-3.41.94-5.38.94s-3.79-.31-5.41-.94-3.02-1.52-4.2-2.67c-1.18-1.16-2.08-2.57-2.73-4.23-.64-1.66-.96-3.52-.96-5.59s.32-3.9.96-5.54,1.55-3.04,2.73-4.19c1.17-1.15,2.57-2.03,4.2-2.65s3.43-.93,5.41-.93ZM703.7,86.72c1.78,0,3.1-.63,3.94-1.89.84-1.26,1.26-3.17,1.26-5.74s-.42-4.48-1.26-5.73c-.84-1.25-2.15-1.88-3.94-1.88s-3.17.62-4.03,1.88c-.85,1.25-1.27,3.16-1.27,5.73s.42,4.48,1.27,5.74c.85,1.26,2.19,1.89,4.03,1.89Z" fill="#e2b857"/><path d="M744.05,66.14v25.92h-4.8c-.97,0-1.6-.43-1.9-1.3l-.45-1.5c-.5.48-1.02.92-1.55,1.31s-1.1.72-1.71,1c-.61.27-1.27.49-1.98.65-.71.16-1.48.24-2.31.24-1.42,0-2.67-.25-3.76-.74-1.09-.49-2.01-1.18-2.76-2.06s-1.32-1.93-1.7-3.12c-.38-1.2-.58-2.52-.58-3.95v-16.45h7.75v16.45c0,1.28.29,2.27.88,2.98.58.7,1.44,1.05,2.58,1.05.85,0,1.65-.18,2.39-.54.74-.36,1.46-.85,2.16-1.46v-18.47h7.75Z" fill="#e2b857"/><path d="M772.77,54.64v37.42h-4.8c-.97,0-1.6-.43-1.9-1.3l-.6-1.98c-.52.55-1.06,1.05-1.62,1.5-.57.45-1.18.84-1.84,1.16-.66.32-1.37.57-2.12.75-.76.17-1.58.26-2.46.26-1.35,0-2.6-.3-3.75-.9s-2.14-1.47-2.97-2.6c-.83-1.13-1.49-2.52-1.96-4.16-.47-1.64-.71-3.51-.71-5.61,0-1.93.27-3.73.8-5.39.53-1.66,1.29-3.09,2.26-4.3.98-1.21,2.15-2.15,3.51-2.84,1.37-.68,2.88-1.02,4.53-1.02,1.35,0,2.48.19,3.4.57.92.38,1.75.9,2.5,1.55v-13.12h7.75ZM765.02,73.09c-.58-.65-1.22-1.1-1.9-1.36-.68-.26-1.4-.39-2.15-.39s-1.38.14-1.97.43c-.6.28-1.12.74-1.56,1.36-.44.62-.79,1.44-1.04,2.44s-.38,2.21-.38,3.62.1,2.52.3,3.45c.2.93.48,1.69.84,2.26.36.58.79.99,1.29,1.24s1.06.38,1.67.38c.57,0,1.08-.05,1.54-.16s.88-.26,1.26-.46c.38-.2.75-.45,1.09-.76.34-.31.68-.66,1.01-1.06v-10.98Z" fill="#e2b857"/></g></svg>